<svg xmlns="http://www.w3.org/2000/svg" shape-rendering="geometricPrecision" text-rendering="geometricPrecision" image-rendering="optimizeQuality" fill-rule="evenodd" clip-rule="evenodd" viewBox="0 0 512 483.04"><path d="M42.38 274.75c-45.76-23.25-40.5-49.17 5.46-46.46l10.29 19.29 14.18-44.08c-7.52-2.46-14.27-6.68-19.76-12.17l-1.05-1.14c-8.37-8.91-13.54-20.88-13.54-33.94V49.69c0-13.68 5.59-26.11 14.58-35.11C61.54 5.59 73.97 0 87.64 0h336.71c13.61 0 26.04 5.62 35.05 14.63 9.04 8.97 14.64 21.42 14.64 35.06v106.56c0 13.56-5.62 25.99-14.62 35.01l-.09.09a50.01 50.01 0 0 1-6.13 5.22l12.2 48.97 9.16-17.25c47.25-2.75 51.46 24.71 1.45 48.42l8.14 12.46c32.87 33.79 29.79 67.53 24.66 150.99v27.41c0 8.51-6.96 15.47-15.46 15.47h-65.96c-8.5 0-15.46-6.96-15.46-15.46v-12.43H100.17v12.42c0 8.51-6.96 15.47-15.46 15.47H18.75c-8.5 0-15.46-6.96-15.46-15.46v-35.63c0-.83.09-1.62.17-2.41-5-64.05-12.04-121.79 38.92-154.79zm79.97-135.42 3.37-18.9c7.41 1.85 14.06 2.77 19.97 2.77 5.91 0 10.68-.24 14.29-.72v-7.03l-10.85-.96c-9.81-.89-16.55-3.24-20.21-7.06-3.65-3.82-5.48-9.47-5.48-16.95 0-10.29 2.23-17.37 6.69-21.22 4.47-3.87 12.05-5.8 22.74-5.8 10.7 0 20.35 1.01 28.95 3.02l-3.01 18.31c-7.48-1.22-13.48-1.82-17.97-1.82-4.51 0-8.34.21-11.47.6v6.91l8.68.85c10.55 1.04 17.82 3.55 21.84 7.53 4.02 3.99 6.03 9.52 6.03 16.59 0 5.07-.68 9.35-2.05 12.85-1.37 3.5-3 6.15-4.89 7.96-1.89 1.8-4.56 3.2-8.02 4.16-3.46.97-6.49 1.55-9.11 1.75-2.6.21-6.08.3-10.43.3-10.46 0-20.14-1.04-29.07-3.14zm92.4 1.33H189.3l19.54-75.38h37.27l19.54 75.38H240.2l-2.77-11.94h-19.91l-2.77 11.94zm12.06-52.23-4.95 21.11h11.1l-4.82-21.11h-1.33zm93.48 52.23h-48.24V65.28h24.12v56.08h24.12v19.3zm56.69-28.46h-24.12v9.16h29.55v19.3h-53.68V65.28h53.08l-3.02 19.29h-25.93v10.14h24.12v17.49zM87.64 17.6h336.71c17.66 0 32.09 14.5 32.09 32.09v106.56c0 17.59-14.5 32.09-32.09 32.09H87.64c-17.58 0-32.09-14.43-32.09-32.09V49.69c0-17.66 14.43-32.09 32.09-32.09zm340.69 188.17c-1.32.12-2.63.17-3.98.17H97l-16.87 56.19v3.11-3.11h361.76l-13.56-56.36zM126.59 350.7l-58.58-7.38c-13.84-1.54-17.55 4.3-12.84 16.21l6.34 15.38c2.03 3.96 4.74 6.83 7.91 8.83 3.71 2.29 8.17 3.42 13.13 3.62l52.25.42c12.62-.04 18.08-5.08 14.12-16.66-3.24-10.88-10.66-17.71-22.33-20.42zm258.84 0 58.59-7.38c13.83-1.54 17.53 4.3 12.83 16.21l-6.33 15.38c-2.04 3.96-4.75 6.83-7.92 8.83-3.71 2.29-8.17 3.42-13.12 3.62l-52.25.42c-12.64-.04-18.09-5.08-14.13-16.66 3.25-10.88 10.67-17.71 22.33-20.42z"/></svg>