<svg xmlns="http://www.w3.org/2000/svg" version="1.1" xmlns:xlink="http://www.w3.org/1999/xlink" xmlns:svgjs="http://svgjs.dev/svgjs" width="1500" height="937" viewBox="0 0 1500 937"><g transform="matrix(1,0,0,1,0,0)"><svg viewBox="0 0 512 320" data-background-color="#444444" preserveAspectRatio="xMidYMid meet" height="937" width="1500" xmlns="http://www.w3.org/2000/svg" xmlns:xlink="http://www.w3.org/1999/xlink"><g id="tight-bounds" transform="matrix(1,0,0,1,0,0)"><svg viewBox="0 0 512 320" height="320" width="512"><g><svg></svg></g><g><svg viewBox="0 0 512 320" height="320" width="512"><g><path d="M96 320l0-320 320 0 0 320zM413.921 317.921l0-315.842-315.842 0 0 315.842z" fill="#00d1cd" fill-rule="nonzero" stroke="none" stroke-width="1" stroke-linecap="butt" stroke-linejoin="miter" stroke-miterlimit="10" stroke-dasharray="" stroke-dashoffset="0" font-family="none" font-weight="none" font-size="none" text-anchor="none" style="mix-blend-mode: normal" data-fill-palette-color="tertiary"></path></g><g transform="matrix(1,0,0,1,140.8,86.52314593444743)"><svg viewBox="0 0 230.4 146.95370813110515" height="146.95370813110515" width="230.4"><g><svg viewBox="0 0 230.4 146.95370813110515" height="146.95370813110515" width="230.4"><g><svg viewBox="0 0 235.14145161191442 149.9779003893301" height="146.95370813110515" width="230.4"><g transform="matrix(1,0,0,1,2.3707258059571927,107.55844149992204)"><svg viewBox="0 0 230.40000000000003 42.41945888940805" height="42.41945888940805" width="230.40000000000003"><g id="textblocktransform"><svg viewBox="0 0 230.40000000000003 42.41945888940805" height="42.41945888940805" width="230.40000000000003" id="textblock"><g><svg viewBox="0 0 230.40000000000003 23.523005717397226" height="23.523005717397226" width="230.40000000000003"><g transform="matrix(1,0,0,1,0,0)"><svg width="230.40000000000003" viewBox="4 -37.5 367.27 37.5" height="23.523005717397226" data-palette-color="#ffffff"><path d="M4-33.5L4-37.5 24-37.5 29.2-32 29.2-21 24-15.5 29.35-4 31.95-4 31.95 0 22.55 0 22.55-4 24.5-4 19.15-15.5 12.1-15.5 12.1-4 15.1-4 15.1 0 4 0 4-4 7.5-4 7.5-33.5 4-33.5ZM22.05-33.2L12.1-33.2 12.1-19.8 22-19.8 24.9-22.75 24.9-30.25 22.05-33.2ZM38.45 0L38.45-4 42.45-4 42.45-28.5 38.45-28.5 38.45-32.5 51.05-32.5 51.05-28.5 47.05-28.5 47.05-4 51.05-4 51.05 0 38.45 0ZM77.55-7.55L77.55-11.8 81.55-11.8 81.55-5.5 76.35 0 63.75 0 58.55-5.5 58.55-27 63.75-32.5 76.35-32.5 81.55-27 81.55-20.7 77.55-20.7 77.55-24.95 74.4-28.2 65.75-28.2 63.15-25.55 63.15-6.95 65.7-4.3 74.35-4.3 77.55-7.55ZM88.54-28.5L88.54-32.5 100.14-32.5 100.14-28.5 96.64-28.5 96.64-18.25 112.04-18.25 112.04-28.5 108.54-28.5 108.54-32.5 120.14-32.5 120.14-28.5 116.64-28.5 116.64-4 120.14-4 120.14 0 108.54 0 108.54-4 112.04-4 112.04-14.25 96.64-14.25 96.64-4 100.14-4 100.14 0 88.54 0 88.54-4 92.04-4 92.04-28.5 88.54-28.5ZM156.24 0L145.64 0 145.64-4 148.94-4 146.79-10.2 134.29-10.2 132.14-4 135.49-4 135.49 0 124.89 0 124.89-4 127.54-4 135.99-28.5 133.89-28.5 133.89-32.5 147.24-32.5 147.24-28.5 145.09-28.5 153.54-4 156.24-4 156.24 0ZM145.44-14.2L140.54-28.35 135.64-14.2 145.44-14.2ZM160.99-28.5L160.99-32.5 180.99-32.5 186.19-27 186.19-17 181.14-11.7 185.79-4 188.44-4 188.44 0 179.54 0 179.54-4 180.94-4 176.44-11.5 169.09-11.5 169.09-4 172.09-4 172.09 0 160.99 0 160.99-4 164.49-4 164.49-28.5 160.99-28.5ZM179.04-28.2L169.09-28.2 169.09-15.8 178.99-15.8 181.89-18.75 181.89-25.25 179.04-28.2ZM195.94-28.5L195.94-32.5 217.24-32.5 222.44-27 222.44-5.5 217.24 0 195.94 0 195.94-4 199.44-4 199.44-28.5 195.94-28.5ZM204.03-28.2L204.03-4.3 215.24-4.3 217.84-6.95 217.84-25.55 215.28-28.2 204.03-28.2ZM253.68-33.5L253.68-37.5 267.03-37.5 267.03-33.5 264.73-33.5 273.53-4 276.03-4 276.03 0 265.43 0 265.43-4 268.93-4 266.63-11.7 254.08-11.7 251.78-4 255.28-4 255.28 0 244.68 0 244.68-4 247.18-4 255.98-33.5 253.68-33.5ZM265.43-15.7L260.33-32.75 255.28-15.7 265.43-15.7ZM299.18-28.5L299.18-32.5 310.28-32.5 310.28-28.5 307.28-28.5 307.28-5.5 302.08 0 288.48 0 283.28-5.5 283.28-28.5 280.28-28.5 280.28-32.5 291.38-32.5 291.38-28.5 287.88-28.5 287.88-6.95 290.43-4.3 300.08-4.3 302.68-6.95 302.68-28.5 299.18-28.5ZM335.58-4L335.58 0 320.98 0 320.98-4 325.98-4 325.98-28.5 319.08-28.5 319.08-22.7 315.28-22.7 315.28-32.5 341.28-32.5 341.28-22.7 337.48-22.7 337.48-28.5 330.58-28.5 330.58-4 335.58-4ZM366.07 0L351.97 0 346.77-5.5 346.77-27 351.97-32.5 366.07-32.5 371.27-27 371.27-5.5 366.07 0ZM351.37-6.95L353.92-4.3 364.07-4.3 366.67-6.95 366.67-25.55 364.12-28.2 353.97-28.2 351.37-25.55 351.37-6.95Z" opacity="1" transform="matrix(1,0,0,1,0,0)" fill="#ffffff" class="wordmark-text-0" data-fill-palette-color="primary" id="text-0"></path></svg></g></svg></g><g transform="matrix(1,0,0,1,0,29.07622281513749)"><svg viewBox="0 0 230.40000000000003 13.343236074270559" height="13.343236074270559" width="230.40000000000003"><g transform="matrix(1,0,0,1,0,0)"><svg width="230.40000000000003" viewBox="-12.5 -32 565.47 32.75" height="13.343236074270559" data-palette-color="#00d1cd"><path d="M19.7 0L10.2 0 15.7-31.25 30.7-31.25Q33.95-31.25 35.83-30.25 37.7-29.25 38.48-27.53 39.25-25.8 39.25-23.6L39.25-23.6Q39.25-22.25 38.98-20.4 38.7-18.55 38-16.63 37.3-14.7 36.02-13.05 34.75-11.4 32.8-10.4L32.8-10.4 36.1 0 25.65 0 23.35-9.3 21.3-9.3 19.7 0ZM14.15-31.25L13.75-29-7.4-31.25 14.15-31.25ZM13.3-26.45L12.9-24.2-8.25-26.45 13.3-26.45ZM23.75-23.25L22.65-17 24.85-17Q26.3-17 27.3-17.32 28.3-17.65 28.55-19.1L28.55-19.1Q28.8-20.35 28.88-21 28.95-21.65 28.95-21.7L28.95-21.7Q28.95-22.8 28.03-23.03 27.1-23.25 25.65-23.25L25.65-23.25 23.75-23.25ZM12.45-21.65L12.05-19.4-9.1-21.65 12.45-21.65ZM11.6-16.85L11.2-14.6-9.95-16.85 11.6-16.85ZM10.8-12.05L10.4-9.8-10.8-12.05 10.8-12.05ZM9.95-7.25L9.55-5-11.65-7.25 9.95-7.25ZM9.1-2.4L8.7-0.15-12.5-2.4 9.1-2.4ZM61.85 0.75L61.85 0.75Q55.35 0.75 52.72-1.8 50.1-4.35 50.1-9.35L50.1-9.35Q50.1-10.75 50.27-12.3 50.45-13.85 50.75-15.6L50.75-15.6Q51.7-21.05 53.55-24.68 55.4-28.3 58.75-30.15 62.1-32 67.6-32L67.6-32Q74.1-32 76.72-29.48 79.35-26.95 79.35-21.9L79.35-21.9Q79.35-19.85 79.02-17.2 78.7-14.55 77.92-11.8 77.15-9.05 75.85-6.6 74.55-4.15 72.6-2.4L72.6-2.4Q70.6-0.65 67.95 0.05 65.3 0.75 61.85 0.75ZM55.25-29.6L55.25-29.6 39.95-31.25 57.5-31.25Q56.9-30.9 56.35-30.5 55.8-30.1 55.25-29.6ZM51.75-24.45L51.75-24.45 33.05-26.45 52.75-26.45Q52.5-25.95 52.25-25.48 52-25 51.75-24.45ZM61.85-20.8L59.55-7.8 63.5-7.8Q65.15-7.8 66.22-8.2 67.3-8.6 67.65-10.45L67.65-10.45 69.95-23.45 65.95-23.45Q64.3-23.45 63.25-23.05 62.2-22.65 61.85-20.8L61.85-20.8ZM50.7-21.65L50.1-19.6 30.7-21.65 50.7-21.65ZM49.15-14.75L49.15-14.75 29.5-16.85 49.5-16.85 49.35-15.85Q49.3-15.55 49.25-15.28 49.2-15 49.15-14.75ZM48.65-9.95L48.65-9.95 28.95-12.05 48.8-12.05Q48.65-10.95 48.65-9.95ZM49.05-5.15L49.05-5.15 29.6-7.25 48.7-7.25Q48.8-6.7 48.87-6.18 48.95-5.65 49.05-5.15ZM51.7-0.55L51.7-0.55 34.4-2.4 50.2-2.4Q50.85-1.25 51.7-0.55ZM100.09 0L90.09 0 103.25-31.25 117.95-31.25 120.15 0 110.09 0 109.9-4.95 102.05-4.95 100.09 0ZM101.59-31.25L100.7-29.1 80.3-31.25 101.59-31.25ZM99.55-26.45L98.65-24.3 78.25-26.45 99.55-26.45ZM97.55-21.65L96.65-19.45 76.2-21.65 97.55-21.65ZM108.65-21.65L105.15-12.9 109.15-12.9 109.15-21.65 108.65-21.65ZM95.55-16.85L94.59-14.65 74.15-16.85 95.55-16.85ZM93.5-12.05L92.59-9.85 72.09-12.05 93.5-12.05ZM91.5-7.25L90.55-5.05 70.05-7.25 91.5-7.25ZM89.45-2.4L88.5-0.2 68-2.4 89.45-2.4ZM146.54 0L133.24 0 138.74-31.25 152.04-31.25Q158.59-31.25 161.27-28.93 163.94-26.6 163.94-21.6L163.94-21.6Q163.94-19 163.34-15.6L163.34-15.6Q162.39-10.2 160.57-6.75 158.74-3.3 155.42-1.65 152.09 0 146.54 0L146.54 0ZM137.19-31.25L136.79-29 115.64-31.25 137.19-31.25ZM136.34-26.45L135.99-24.2 114.79-26.45 136.34-26.45ZM146.79-23.25L144.14-8 148.09-8Q149.74-8 150.82-8.4 151.89-8.8 152.24-10.65L152.24-10.65 153.99-20.6Q154.04-20.85 154.04-21.03 154.04-21.2 154.04-21.4L154.04-21.4Q154.04-22.7 153.12-22.98 152.19-23.25 150.74-23.25L150.74-23.25 146.79-23.25ZM135.54-21.65L135.14-19.4 113.94-21.65 135.54-21.65ZM134.69-16.85L134.29-14.6 113.09-16.85 134.69-16.85ZM133.84-12.05L133.44-9.8 112.24-12.05 133.84-12.05ZM132.99-7.25L132.59-5 111.39-7.25 132.99-7.25ZM132.14-2.4L131.74-0.15 110.54-2.4 132.14-2.4ZM194.69 0L184.69 0 197.84-31.25 212.54-31.25 214.74 0 204.69 0 204.49-4.95 196.64-4.95 194.69 0ZM196.19-31.25L195.29-29.1 174.89-31.25 196.19-31.25ZM194.14-26.45L193.24-24.3 172.84-26.45 194.14-26.45ZM192.14-21.65L191.24-19.45 170.79-21.65 192.14-21.65ZM203.24-21.65L199.74-12.9 203.74-12.9 203.74-21.65 203.24-21.65ZM190.14-16.85L189.19-14.65 168.74-16.85 190.14-16.85ZM188.09-12.05L187.19-9.85 166.69-12.05 188.09-12.05ZM186.09-7.25L185.14-5.05 164.64-7.25 186.09-7.25ZM184.04-2.4L183.09-0.2 162.59-2.4 184.04-2.4ZM239.54 0.75L239.54 0.75Q236.59 0.75 233.76 0.43 230.94 0.1 228.29-0.55L228.29-0.55 231.09-8.8Q232.99-8.3 235.19-7.98 237.39-7.65 239.34-7.65L239.34-7.65Q240.94-7.65 242.14-7.73 243.34-7.8 244.44-7.95L244.44-7.95 244.84-10.45 240.69-10.85Q235.79-11.35 233.89-13.08 231.99-14.8 231.99-17.8L231.99-17.8Q231.99-19.15 232.29-20.8L232.29-20.8Q233.09-25.05 234.61-27.5 236.14-29.95 238.99-30.98 241.84-32 246.54-32L246.54-32Q249.29-32 251.94-31.7 254.59-31.4 257.04-30.75L257.04-30.75 254.44-22.75Q252.49-23.1 250.74-23.3 248.99-23.5 246.84-23.5L246.84-23.5Q245.69-23.5 244.89-23.45 244.09-23.4 242.94-23.25L242.94-23.25 242.54-20.8 245.89-20.45Q249.49-20.1 251.54-19.07 253.59-18.05 254.44-16.53 255.29-15 255.29-13L255.29-13Q255.29-12.4 255.21-11.78 255.14-11.15 255.04-10.45L255.04-10.45Q254.34-6.4 252.79-4.1 251.24-1.8 249.14-0.78 247.04 0.25 244.56 0.5 242.09 0.75 239.54 0.75ZM233.79-29.2L233.79-29.2 214.49-31.25 235.99-31.25Q235.34-30.85 234.81-30.33 234.29-29.8 233.79-29.2ZM232.24-26.45L231.49-24.25 210.74-26.45 232.24-26.45ZM230.54-19.4L230.54-19.4 209.34-21.65 230.89-21.65Q230.84-21.5 230.81-21.35 230.79-21.2 230.79-21.05L230.79-21.05Q230.74-20.7 230.66-20.3 230.59-19.9 230.54-19.4ZM230.94-14.6L230.94-14.6 209.79-16.85 230.54-16.85Q230.59-16.2 230.66-15.68 230.74-15.15 230.94-14.6ZM237.54-9.8L237.54-9.8 211.09-12.05 232.64-12.05Q234.29-10.45 237.54-9.8ZM228.94-7.25L228.19-5.05 210.24-7.25 228.94-7.25ZM227.34-2.4L226.59-0.2 209.39-2.4 227.34-2.4ZM279.43 0.75L279.43 0.75Q276.48 0.75 273.66 0.43 270.83 0.1 268.18-0.55L268.18-0.55 270.98-8.8Q272.88-8.3 275.08-7.98 277.28-7.65 279.23-7.65L279.23-7.65Q280.83-7.65 282.03-7.73 283.23-7.8 284.33-7.95L284.33-7.95 284.73-10.45 280.58-10.85Q275.68-11.35 273.78-13.08 271.88-14.8 271.88-17.8L271.88-17.8Q271.88-19.15 272.18-20.8L272.18-20.8Q272.98-25.05 274.51-27.5 276.03-29.95 278.88-30.98 281.73-32 286.43-32L286.43-32Q289.18-32 291.83-31.7 294.48-31.4 296.93-30.75L296.93-30.75 294.33-22.75Q292.38-23.1 290.63-23.3 288.88-23.5 286.73-23.5L286.73-23.5Q285.58-23.5 284.78-23.45 283.98-23.4 282.83-23.25L282.83-23.25 282.43-20.8 285.78-20.45Q289.38-20.1 291.43-19.07 293.48-18.05 294.33-16.53 295.18-15 295.18-13L295.18-13Q295.18-12.4 295.11-11.78 295.03-11.15 294.93-10.45L294.93-10.45Q294.23-6.4 292.68-4.1 291.13-1.8 289.03-0.78 286.93 0.25 284.46 0.5 281.98 0.75 279.43 0.75ZM273.68-29.2L273.68-29.2 254.38-31.25 275.88-31.25Q275.23-30.85 274.71-30.33 274.18-29.8 273.68-29.2ZM272.13-26.45L271.38-24.25 250.63-26.45 272.13-26.45ZM270.43-19.4L270.43-19.4 249.23-21.65 270.78-21.65Q270.73-21.5 270.71-21.35 270.68-21.2 270.68-21.05L270.68-21.05Q270.63-20.7 270.56-20.3 270.48-19.9 270.43-19.4ZM270.83-14.6L270.83-14.6 249.68-16.85 270.43-16.85Q270.48-16.2 270.56-15.68 270.63-15.15 270.83-14.6ZM277.43-9.8L277.43-9.8 250.98-12.05 272.53-12.05Q274.18-10.45 277.43-9.8ZM268.83-7.25L268.08-5.05 250.13-7.25 268.83-7.25ZM267.23-2.4L266.48-0.2 249.28-2.4 267.23-2.4ZM317.13 0L307.63 0 313.13-31.25 322.63-31.25 317.13 0ZM311.58-31.25L311.18-29 290.03-31.25 311.58-31.25ZM310.73-26.45L310.38-24.2 289.18-26.45 310.73-26.45ZM309.93-21.65L309.53-19.4 288.33-21.65 309.93-21.65ZM309.08-16.85L308.68-14.6 287.48-16.85 309.08-16.85ZM308.23-12.05L307.83-9.8 286.63-12.05 308.23-12.05ZM307.38-7.25L306.98-5 285.78-7.25 307.38-7.25ZM306.53-2.4L306.13-0.15 284.93-2.4 306.53-2.4ZM344.53 0.75L344.53 0.75Q341.58 0.75 338.75 0.43 335.93 0.1 333.28-0.55L333.28-0.55 336.08-8.8Q337.98-8.3 340.18-7.98 342.38-7.65 344.33-7.65L344.33-7.65Q345.93-7.65 347.13-7.73 348.33-7.8 349.43-7.95L349.43-7.95 349.83-10.45 345.68-10.85Q340.78-11.35 338.88-13.08 336.98-14.8 336.98-17.8L336.98-17.8Q336.98-19.15 337.28-20.8L337.28-20.8Q338.08-25.05 339.6-27.5 341.13-29.95 343.98-30.98 346.83-32 351.53-32L351.53-32Q354.28-32 356.93-31.7 359.58-31.4 362.03-30.75L362.03-30.75 359.43-22.75Q357.48-23.1 355.73-23.3 353.98-23.5 351.83-23.5L351.83-23.5Q350.68-23.5 349.88-23.45 349.08-23.4 347.93-23.25L347.93-23.25 347.53-20.8 350.88-20.45Q354.48-20.1 356.53-19.07 358.58-18.05 359.43-16.53 360.28-15 360.28-13L360.28-13Q360.28-12.4 360.2-11.78 360.13-11.15 360.03-10.45L360.03-10.45Q359.33-6.4 357.78-4.1 356.23-1.8 354.13-0.78 352.03 0.25 349.55 0.5 347.08 0.75 344.53 0.75ZM338.78-29.2L338.78-29.2 319.48-31.25 340.98-31.25Q340.33-30.85 339.8-30.33 339.28-29.8 338.78-29.2ZM337.23-26.45L336.48-24.25 315.73-26.45 337.23-26.45ZM335.53-19.4L335.53-19.4 314.33-21.65 335.88-21.65Q335.83-21.5 335.8-21.35 335.78-21.2 335.78-21.05L335.78-21.05Q335.73-20.7 335.65-20.3 335.58-19.9 335.53-19.4ZM335.93-14.6L335.93-14.6 314.78-16.85 335.53-16.85Q335.58-16.2 335.65-15.68 335.73-15.15 335.93-14.6ZM342.53-9.8L342.53-9.8 316.08-12.05 337.63-12.05Q339.28-10.45 342.53-9.8ZM333.93-7.25L333.18-5.05 315.23-7.25 333.93-7.25ZM332.33-2.4L331.58-0.2 314.38-2.4 332.33-2.4ZM388.38 0L378.88 0 382.93-23.25 376.08-23.25 377.53-31.25 400.78-31.25 399.33-23.25 392.43-23.25 388.38 0ZM375.93-31.25L375.53-29 354.38-31.25 375.93-31.25ZM375.08-26.45L374.73-24.2 353.53-26.45 375.08-26.45ZM381.13-21.65L380.73-19.4 359.53-21.65 381.13-21.65ZM380.28-16.85L379.88-14.6 358.68-16.85 380.28-16.85ZM379.43-12.05L379.03-9.8 357.83-12.05 379.43-12.05ZM378.58-7.25L378.18-5 356.98-7.25 378.58-7.25ZM377.73-2.4L377.33-0.15 356.13-2.4 377.73-2.4ZM416.72 0L406.72 0 419.87-31.25 434.57-31.25 436.77 0 426.72 0 426.52-4.95 418.67-4.95 416.72 0ZM418.22-31.25L417.32-29.1 396.92-31.25 418.22-31.25ZM416.17-26.45L415.27-24.3 394.87-26.45 416.17-26.45ZM414.17-21.65L413.27-19.45 392.82-21.65 414.17-21.65ZM425.27-21.65L421.77-12.9 425.77-12.9 425.77-21.65 425.27-21.65ZM412.17-16.85L411.22-14.65 390.77-16.85 412.17-16.85ZM410.12-12.05L409.22-9.85 388.72-12.05 410.12-12.05ZM408.12-7.25L407.17-5.05 386.67-7.25 408.12-7.25ZM406.07-2.4L405.12-0.2 384.62-2.4 406.07-2.4ZM459.37 0L449.87 0 455.37-31.25 464.32-31.25 469.42-20.15Q469.57-19.8 469.57-19.15L469.57-19.15Q469.57-18.8 469.55-18.43 469.52-18.05 469.47-17.75L469.47-17.75 469.87-17.75 472.27-31.25 481.77-31.25 476.27 0 467.32 0 462.22-11.1Q462.17-11.3 462.1-11.58 462.02-11.85 462.02-12.2L462.02-12.2Q462.02-12.5 462.05-12.85 462.07-13.2 462.12-13.5L462.12-13.5 461.72-13.5 459.37 0ZM453.82-31.25L453.42-29 432.27-31.25 453.82-31.25ZM452.97-26.45L452.62-24.2 431.42-26.45 452.97-26.45ZM452.17-21.65L451.77-19.4 430.57-21.65 452.17-21.65ZM451.32-16.85L450.92-14.6 429.72-16.85 451.32-16.85ZM450.47-12.05L450.07-9.8 428.87-12.05 450.47-12.05ZM449.62-7.25L449.22-5 428.02-7.25 449.62-7.25ZM448.77-2.4L448.37-0.15 427.17-2.4 448.77-2.4ZM504.37 0.75L504.37 0.75Q497.87 0.75 495.24-1.78 492.62-4.3 492.62-9.25L492.62-9.25Q492.62-10.65 492.82-12.23 493.02-13.8 493.32-15.6L493.32-15.6Q494.27-21.05 496.07-24.68 497.87-28.3 501.22-30.15 504.57-32 510.12-32L510.12-32Q511.22-32 512.72-31.85 514.22-31.7 515.64-31.4 517.07-31.1 517.82-30.7L517.82-30.7 515.02-23.05Q513.62-23.4 512.02-23.58 510.42-23.75 509.42-23.75L509.42-23.75Q507.12-23.75 505.92-23.3 504.72-22.85 504.47-21.25L504.47-21.25 502.17-8.15Q503.17-7.95 504.09-7.85 505.02-7.75 505.87-7.75L505.87-7.75Q507.77-7.75 509.74-8.08 511.72-8.4 513.27-8.95L513.27-8.95 512.47-0.55Q510.72 0.15 508.79 0.45 506.87 0.75 504.37 0.75ZM497.72-29.6L497.72-29.6 482.42-31.25 499.97-31.25Q499.37-30.9 498.82-30.5 498.27-30.1 497.72-29.6ZM494.22-24.45L494.22-24.45 475.52-26.45 495.22-26.45Q494.97-25.95 494.72-25.48 494.47-25 494.22-24.45ZM493.17-21.65L492.57-19.6 473.17-21.65 493.17-21.65ZM491.62-14.75L491.62-14.75 471.97-16.85 491.97-16.85 491.82-15.85Q491.77-15.55 491.72-15.28 491.67-15 491.62-14.75ZM491.12-9.95L491.12-9.95 471.42-12.05 491.27-12.05Q491.12-10.95 491.12-9.95ZM491.52-5.15L491.52-5.15 472.07-7.25 491.17-7.25Q491.27-6.7 491.34-6.18 491.42-5.65 491.52-5.15ZM494.17-0.55L494.17-0.55 476.87-2.4 492.67-2.4Q493.32-1.25 494.17-0.55ZM547.72 0L526.57 0 532.07-31.25 552.97-31.25 550.37-23.25 540.12-23.25 539.42-19.05 548.92-19.05 547.62-11.8 538.12-11.8 537.47-8 549.12-8 547.72 0ZM530.52-31.25L530.12-29 508.97-31.25 530.52-31.25ZM529.67-26.45L529.32-24.2 508.12-26.45 529.67-26.45ZM528.87-21.65L528.47-19.4 507.27-21.65 528.87-21.65ZM528.02-16.85L527.62-14.6 506.42-16.85 528.02-16.85ZM527.17-12.05L526.77-9.8 505.57-12.05 527.17-12.05ZM526.32-7.25L525.92-5 504.72-7.25 526.32-7.25ZM525.47-2.4L525.07-0.15 503.87-2.4 525.47-2.4Z" opacity="1" transform="matrix(1,0,0,1,0,0)" fill="#00d1cd" class="slogan-text-1" data-fill-palette-color="secondary" id="text-1"></path></svg></g></svg></g></svg></g></svg></g><g><svg viewBox="0 0 235.14145161191442 102.00522440218177" height="102.00522440218177" width="235.14145161191442"><g><svg xmlns="http://www.w3.org/2000/svg" xmlns:xlink="http://www.w3.org/1999/xlink" version="1.1" x="0" y="0" viewBox="2.6630000000000003 33.602 95.88900000000001 41.597000000000016" enable-background="new 0 0 100 100" xml:space="preserve" height="102.00522440218177" width="235.14145161191442" class="icon-icon-0" data-fill-palette-color="accent" id="icon-0"><g fill="#00d1cd" data-fill-palette-color="accent"><path fill="#00d1cd" d="M86.736 64.49c-2.957 0-5.354 2.396-5.354 5.352 0 2.961 2.396 5.357 5.354 5.357s5.355-2.396 5.355-5.357C92.094 66.887 89.693 64.49 86.736 64.49zM86.736 72.465c-1.445 0-2.621-1.174-2.621-2.623 0-1.443 1.176-2.617 2.621-2.617 1.447 0 2.619 1.174 2.619 2.617C89.355 71.291 88.184 72.465 86.736 72.465z" data-fill-palette-color="accent"></path><path fill="#00d1cd" d="M7.936 56.201H7.934c0-0.848 0.686-1.534 1.53-1.534h11.341c0.846 0 1.531 0.687 1.531 1.534l0.002 0.221h26.783c0.182-3.807 3.326-6.84 7.182-6.84 3.858 0 7.006 3.041 7.18 6.855l2.266 0.006c0.508 0 0.922-0.41 0.922-0.92V53.1c0-0.508-0.414-0.918-0.922-0.918H65.57v-4.778c0-1.353-1.098-2.45-2.452-2.45h-9.271l-6.703-9.812c-0.828-1.102-1.623-1.532-2.892-1.532L5.727 33.602c-1.691 0-3.064 1.373-3.064 3.065v16.64c0 1.657 1.318 3.062 2.967 3.116h2.307V56.201zM38.421 36.674L38.421 36.674c0.001-0.506 0.411-0.918 0.921-0.918h4.694c0.512 0 0.698 0.046 1.163 0.661l3.15 4.436c0.358 0.508 0.237 0.919-0.27 0.919h-8.739c-0.51 0-0.92-0.411-0.92-0.919V36.674zM37.645 43.143c0.316 0 0.553 0.123 0.705 0.307h2.213c0.816 0 0.816 1.225 0 1.225h-2.215c-0.154 0.183-0.389 0.306-0.709 0.306C36.414 44.98 36.414 43.143 37.645 43.143z" data-fill-palette-color="accent"></path><path fill="#00d1cd" d="M97.633 65.248l-1.623-0.004V62.79c0.332 0.64 0.998 1.071 1.766 1.071 0 0 0.152-0.004 0.184-0.008 0.328-0.045 0.582-0.34 0.582-0.692v-2.595c0-0.352-0.254-0.646-0.582-0.691-0.061-0.006-0.119-0.01-0.184-0.01-0.768 0-1.434 0.435-1.768 1.07v-0.463c0-1.355-1.1-2.451-2.453-2.451h-0.086l-3.922-0.002c-0.854 0-0.854-1.228 0-1.228h3.086L85.658 46.63c-0.826-1.102-1.623-1.532-2.891-1.532h-6.389l-0.162-1.149c-0.018-0.117-0.123-0.211-0.236-0.215l-0.203-1.501c-0.148-0.998-0.645-1.501-1.463-1.501-0.816 0-1.311 0.506-1.465 1.501l-0.201 1.501h-0.033c-0.117 0-0.229 0.097-0.242 0.215l-0.158 1.149h-2.418c-0.844 0-1.529 0.686-1.529 1.532v14.495c-0.156 0.68-0.764 1.191-1.494 1.191H11.902c-0.848 0-1.532 0.686-1.532 1.531l0.002 1.316L8.739 65.17c-0.511 0-0.923 0.408-0.923 0.918v2.424c0 0.508 0.412 0.92 0.923 0.92l6.896 0.01v-0.176c0-0.846 0.688-1.531 1.532-1.531h11.341c0.848 0 1.532 0.687 1.532 1.531v0.193l49.519 0.029c0.18-3.807 3.324-6.838 7.18-6.838 3.857 0 7.008 3.039 7.182 6.854l3.713 0.004c0.506 0 0.918-0.411 0.918-0.918V66.17C98.551 65.658 98.139 65.248 97.633 65.248zM73.67 42.344c0.111-0.703 0.354-0.784 0.645-0.784 0.299 0 0.539 0.082 0.646 0.796l0.168 1.256h-1.625L73.67 42.344zM76.316 53.92c0 0.508-0.41 0.919-0.918 0.919h-2.277c-0.51 0-0.918-0.411-0.918-0.919v-5.755c0-0.507 0.408-0.919 0.918-0.919h2.277c0.508 0 0.918 0.412 0.918 0.919V53.92zM81.812 58.042h-2.211c-0.154 0.185-0.391 0.308-0.711 0.308-1.225 0-1.225-1.84 0.006-1.84 0.318 0 0.553 0.123 0.707 0.307h2.209C82.633 56.816 82.633 58.042 81.812 58.042zM87.699 54.839h-8.738c-0.506 0-0.918-0.411-0.918-0.919v-5.755c0-0.507 0.412-0.919 0.918-0.919h3.59c0.514 0 0.699 0.047 1.166 0.66l4.258 6.015C88.326 54.428 88.209 54.839 87.699 54.839z" data-fill-palette-color="accent"></path><path fill="#00d1cd" d="M25.283 68.906c0.111 0.293 0.172 0.607 0.172 0.936 0 1.449-1.172 2.623-2.617 2.623-1.447 0-2.619-1.174-2.619-2.623 0-0.328 0.061-0.643 0.172-0.936h-2.828c-0.053 0.307-0.082 0.619-0.082 0.936 0 2.961 2.398 5.357 5.357 5.357 2.955 0 5.354-2.396 5.354-5.357 0-0.316-0.027-0.629-0.082-0.936H25.283z" data-fill-palette-color="accent"></path><path fill="#00d1cd" d="M56.296 51.421c-2.958 0-5.356 2.397-5.356 5.354 0 1.734 0.826 3.277 2.104 4.254h6.506c1.278-0.977 2.103-2.52 2.103-4.254C61.65 53.818 59.255 51.421 56.296 51.421zM56.296 59.396c-1.446 0-2.618-1.176-2.618-2.621 0-1.446 1.172-2.619 2.618-2.619 1.448 0 2.618 1.173 2.618 2.619C58.914 58.221 57.744 59.396 56.296 59.396z" data-fill-palette-color="accent"></path><path fill="#00d1cd" d="M9.854 55.839c-0.054 0.304-0.08 0.617-0.08 0.937 0 1.734 0.824 3.279 2.104 4.256h6.502c1.278-0.977 2.104-2.521 2.104-4.256 0-0.318-0.027-0.633-0.08-0.937h-2.828c0.113 0.291 0.174 0.606 0.174 0.937 0 1.445-1.174 2.621-2.619 2.621s-2.619-1.176-2.619-2.621c0-0.328 0.062-0.646 0.172-0.937H9.854z" data-fill-palette-color="accent"></path></g></svg></g></svg></g><g></g></svg></g></svg></g></svg></g></svg></g><defs></defs></svg><rect width="512" height="320" fill="none" stroke="none" visibility="hidden"></rect></g></svg></g></svg>