<svg id="Layer_1" data-name="Layer 1" xmlns="http://www.w3.org/2000/svg" viewBox="0 0 122.88 94.15"><defs><style>.cls-1{fill-rule:evenodd;}</style></defs><title>low-cost</title><path class="cls-1" d="M61.44,94.15,79.74,74.7H69.67V66.56l53.2-.61V0L0,1.39v66l53.21-.61v8H43.14l18.3,19.45Zm19.8-60.48a19.8,19.8,0,1,1-19.8-19.8,19.78,19.78,0,0,1,19.8,19.8Zm-21-11.31V20.3a.56.56,0,0,1,.56-.57h2.38a.56.56,0,0,1,.57.57v2.15l.09,0a8.05,8.05,0,0,1,1.84.66,6.4,6.4,0,0,1,1.53,1.08,6.7,6.7,0,0,1,1.17,1.46l0,0a6.83,6.83,0,0,1,.71,1.78,8.74,8.74,0,0,1,.24,2.09.57.57,0,0,1-.57.57H63.68a.57.57,0,0,1-.56-.57A4.7,4.7,0,0,0,63,28.42v0a1.28,1.28,0,0,0-.29-.56l0,0a1.91,1.91,0,0,0-.43-.29,1.53,1.53,0,0,0-.54-.1,1.58,1.58,0,0,0-.41,0,1,1,0,0,0-.27.12h0a.81.81,0,0,0-.19.18,1.28,1.28,0,0,0-.15.25,2.42,2.42,0,0,0-.1.36,1.58,1.58,0,0,0,0,.38,2.48,2.48,0,0,0,0,.41,1.25,1.25,0,0,0,.11.31h0a1,1,0,0,0,.2.28l0,0a2.14,2.14,0,0,0,.31.27,5.49,5.49,0,0,0,.53.34c.21.12.45.24.71.36.65.29,1.24.57,1.78.85s1.1.58,1.6.87l0,0a8.41,8.41,0,0,1,1.38,1,7.08,7.08,0,0,1,1.08,1.25,5.18,5.18,0,0,1,.72,1.6,7.3,7.3,0,0,1,.23,1.93A7.2,7.2,0,0,1,69,40.2a5.26,5.26,0,0,1-.74,1.61,5.52,5.52,0,0,1-1.17,1.29A6.44,6.44,0,0,1,65.6,44a8.77,8.77,0,0,1-1.82.56l-.3,0v2.41a.58.58,0,0,1-.57.57H60.53c-.31,0-.57-.71-.57-1v-2a10.62,10.62,0,0,1-1.12-.24,7.49,7.49,0,0,1-1.39-.52,7.11,7.11,0,0,1-1.27-.76h0a6,6,0,0,1-1.09-1.05,7.38,7.38,0,0,1-.85-1.33v0a6.78,6.78,0,0,1-.54-1.63,10,10,0,0,1-.18-1.95.57.57,0,0,1,.57-.57H59.2a.57.57,0,0,1,.56.57,5.08,5.08,0,0,0,.05.72,2.47,2.47,0,0,0,.13.55v0a4.08,4.08,0,0,0,.19.42,1.73,1.73,0,0,0,.23.29,1.42,1.42,0,0,0,.28.23,1.09,1.09,0,0,0,.31.14l0,0,.35.08a2.41,2.41,0,0,0,.4,0,1.39,1.39,0,0,0,.75-.16.82.82,0,0,0,.22-.19l0,0a1.16,1.16,0,0,0,.13-.22,3,3,0,0,0,.1-.32,1.83,1.83,0,0,0,0-.35,3.18,3.18,0,0,0,0-.57h0a1.7,1.7,0,0,0-.12-.38l0,0a1,1,0,0,0-.18-.27,1.85,1.85,0,0,0-.32-.29h0a5.06,5.06,0,0,0-.48-.29c-.2-.1-.43-.21-.69-.32-.64-.27-1.25-.55-1.82-.83l0,0c-.57-.27-1.1-.55-1.58-.82a8.11,8.11,0,0,1-1.41-1,6.57,6.57,0,0,1-1.08-1.23l0,0a5.3,5.3,0,0,1-.68-1.57,7.78,7.78,0,0,1-.22-1.94,6.06,6.06,0,0,1,1-3.43A6.29,6.29,0,0,1,56.42,24,7.35,7.35,0,0,1,58,23a8.07,8.07,0,0,1,1.82-.58,3.86,3.86,0,0,1,.51-.09ZM100,9.19c0,5.74,6.28,12,12,12l0,23.2c-5.74,0-12,6.27-12,12L22.76,57.84c0-5.74-6.27-12-12-12l0-23.21c5.74,0,12.05-6.29,12.05-12L100,9.19Z"/></svg>