<?xml version="1.0" encoding="utf-8"?><svg version="1.1" id="Layer_1" xmlns="http://www.w3.org/2000/svg" xmlns:xlink="http://www.w3.org/1999/xlink" x="0px" y="0px" viewBox="0 0 103.86 122.88" style="enable-background:new 0 0 103.86 122.88" xml:space="preserve"><style type="text/css"><![CDATA[
	.st0{fill:#E5273A;}
	.st1{fill:#FFFFFF;}
	.st2{fill-rule:evenodd;clip-rule:evenodd;fill:#393939;}
]]></style><g><path class="st0" d="M74.31,106.27c-5.6,6.12-12.09,11.61-19.42,16.06c-0.88,0.66-2.13,0.75-3.13,0.11 c-10.8-6.87-19.85-15.13-26.99-24.09C14.94,86.02,8.73,72.34,6.62,59.16c-2.15-13.36-0.14-26.2,6.51-36.68 c2.63-4.13,5.97-7.89,10.07-11.14C32.57,3.88,43.3-0.07,53.96,0c10.28,0.09,20.42,3.9,29.22,11.93c3.09,2.81,5.67,5.99,7.78,9.48 c7.15,11.77,8.69,26.81,5.56,42.01c-3.11,15.04-10.8,30.33-22.18,42.8L74.31,106.27L74.31,106.27L74.31,106.27z M66.3,32.33 c-3.67-3.67-8.78-5.97-14.38-5.97c-5.63,0-10.71,2.27-14.38,5.97c-3.67,3.67-5.97,8.78-5.97,14.38c0,5.63,2.27,10.71,5.97,14.38 c3.67,3.67,8.78,5.97,14.38,5.97c5.63,0,10.71-2.27,14.38-5.97c3.67-3.67,5.97-8.78,5.97-14.38C72.26,41.08,70,36,66.3,32.33 L66.3,32.33L66.3,32.33z"/><path class="st2" d="M0.06,55.6H103.8c0.56,17.28-3.17,38.03-16.89,51.01H16.95C7.67,99.72-0.78,73.73,0.06,55.6L0.06,55.6z"/><path class="st1" d="M13.08,63.19h3.86l1.39,8.15l2.04-8.15h3.83l2.05,8.17l1.4-8.17h3.85L28.59,77.8H24.6l-2.31-9.2l-2.3,9.2H16 L13.08,63.19L13.08,63.19z M32.82,63.19h10.89v3.12h-6.81v2.33h6.31v2.98h-6.31v2.88h7.01v3.31h-11.1V63.19L32.82,63.19z M59.16,75.39h-4.61l-0.66,2.41h-4.16l4.96-14.61h4.46l4.94,14.61h-4.26L59.16,75.39L59.16,75.39z M58.3,72.23l-1.44-5.25 l-1.45,5.25H58.3L58.3,72.23z M65.42,77.8V63.19h6.78c1.26,0,2.22,0.12,2.88,0.36c0.66,0.24,1.21,0.68,1.61,1.33 c0.41,0.65,0.61,1.44,0.61,2.37c0,0.81-0.16,1.51-0.47,2.1c-0.31,0.59-0.74,1.07-1.29,1.44c-0.34,0.23-0.83,0.42-1.43,0.58 c0.48,0.18,0.84,0.36,1.06,0.54c0.14,0.12,0.37,0.38,0.65,0.77c0.28,0.39,0.47,0.7,0.57,0.91l1.98,4.22h-4.6l-2.18-4.46 c-0.28-0.58-0.52-0.96-0.74-1.13c-0.29-0.23-0.63-0.33-1-0.33h-0.36v5.92H65.42L65.42,77.8z M69.51,69.13h1.72 c0.18,0,0.55-0.08,1.08-0.2c0.27-0.06,0.49-0.21,0.66-0.46c0.17-0.25,0.26-0.53,0.26-0.85c0-0.47-0.14-0.84-0.4-1.09 c-0.27-0.25-0.78-0.38-1.52-0.38h-1.79V69.13L69.51,69.13z M79.68,63.19h10.89v3.12h-6.81v2.33h6.31v2.98h-6.31v2.88h7.01v3.31 h-11.1V63.19L79.68,63.19z M25.6,83.82h4.07v5.1h4.45v-5.1h4.09v14.61h-4.09v-5.92h-4.45v5.92H25.6V83.82L25.6,83.82z M40.92,83.82 h10.89v3.12H45v2.33h6.31v2.98H45v2.88h7.01v3.31H40.92V83.82L40.92,83.82z M54.26,98.43V83.82h6.78c1.26,0,2.22,0.13,2.88,0.36 c0.66,0.24,1.21,0.69,1.61,1.33c0.4,0.64,0.61,1.44,0.61,2.37c0,0.81-0.16,1.51-0.47,2.1c-0.31,0.59-0.74,1.07-1.29,1.44 c-0.34,0.23-0.83,0.42-1.43,0.58c0.48,0.18,0.84,0.36,1.06,0.54c0.14,0.11,0.37,0.38,0.65,0.77c0.28,0.38,0.47,0.71,0.57,0.91 l1.98,4.22h-4.6l-2.18-4.46c-0.28-0.58-0.52-0.96-0.74-1.13c-0.29-0.22-0.64-0.33-1-0.33h-0.36v5.92H54.26L54.26,98.43z M58.34,89.76h1.72c0.18,0,0.55-0.08,1.08-0.2c0.26-0.06,0.49-0.22,0.66-0.46c0.17-0.25,0.26-0.53,0.26-0.85 c0-0.47-0.14-0.84-0.4-1.09c-0.27-0.25-0.79-0.38-1.52-0.38h-1.79V89.76L58.34,89.76z M68.52,83.82h10.89v3.12H72.6v2.33h6.31v2.98 H72.6v2.88h7.01v3.31H68.52V83.82L68.52,83.82z"/></g></svg>