<svg xmlns="http://www.w3.org/2000/svg" viewBox="0 0 122.88 94.84"><defs><style>.a{fill-rule:evenodd;}</style></defs><title>inverter-battery</title><path class="a" d="M6.83,36.16H116.05V89.5a5.36,5.36,0,0,1-5.34,5.34H12.17A5.36,5.36,0,0,1,6.83,89.5V36.16ZM97.23,9h13a1,1,0,0,1,1,1v7.91h11.69v12.5H0V17.91H12V10a1,1,0,0,1,1-1H26a1,1,0,0,1,1,1v7.91H40.2V3.43A3.44,3.44,0,0,1,43.63,0H81a3.44,3.44,0,0,1,3.43,3.43V17.91H96.23V10a1,1,0,0,1,1-1Zm-49.95,8.9H77.34V7H47.28V17.91ZM70.77,51.48,57.4,51.6l-4.89,17,6.63.06-7,17.7L70.7,63.73H62.55l8.22-12.25Zm34.28-3.93v4.61H91.84V47.55Zm-82.92-4.3h4.61v4.3H31v4.61h-4.3v4.3H22.13v-4.3h-4.3V47.55h4.3v-4.3Z"/></svg>