<svg xmlns="http://www.w3.org/2000/svg" version="1.1" xmlns:xlink="http://www.w3.org/1999/xlink" xmlns:svgjs="http://svgjs.dev/svgjs" width="1500" height="1500" viewBox="0 0 1500 1500"><rect width="1500" height="1500" fill="#444444"></rect><g transform="matrix(0.6666666666666666,0,0,0.6666666666666666,250.10666666666668,431.8799966666667)"><svg viewBox="0 0 375 239" data-background-color="#444444" preserveAspectRatio="xMidYMid meet" height="956" width="1500" xmlns="http://www.w3.org/2000/svg" xmlns:xlink="http://www.w3.org/1999/xlink"><g id="tight-bounds" transform="matrix(1,0,0,1,-0.03976000000000113,-0.20489875000002655)"><svg viewBox="0 0 375.07953 239.40989750000003" height="239.40989750000003" width="375.07953"><g><svg></svg></g><g><svg viewBox="0 0 375.07953 239.40989750000003" height="239.40989750000003" width="375.07953"><g transform="matrix(1,0,0,1,-10.22024,-7.790099999999995)"><path d="M10.22 239.41v-231.62h375.08v231.62l-26.291 0 0-2.899h23.392v-225.822h-369.282v225.822l23.392 0 0 2.899z" fill="#00d1cd" fill-rule="nonzero" stroke="none" stroke-width="1" stroke-linecap="butt" stroke-linejoin="miter" stroke-miterlimit="10" stroke-dasharray="" stroke-dashoffset="0" font-family="none" font-weight="none" font-size="none" text-anchor="none" style="mix-blend-mode: normal" data-fill-palette-color="tertiary"></path><g><path transform="translate(51.95116,246.79535) scale(0.53953,0.53953)" d="M19.7 0h-9.5l5.5-31.25h15c2.167 0 3.877 0.333 5.13 1 1.247 0.667 2.13 1.573 2.65 2.72 0.513 1.153 0.77 2.463 0.77 3.93v0c0 0.9-0.09 1.967-0.27 3.2-0.187 1.233-0.513 2.49-0.98 3.77-0.467 1.287-1.127 2.48-1.98 3.58-0.847 1.1-1.92 1.983-3.22 2.65v0l3.3 10.4h-10.45l-2.3-9.3h-2.05zM14.15-31.25l-0.4 2.25-21.15-2.25zM13.3-26.45l-0.4 2.25-21.15-2.25zM23.75-23.25l-1.1 6.25h2.2c0.967 0 1.783-0.107 2.45-0.32 0.667-0.22 1.083-0.813 1.25-1.78v0c0.167-0.833 0.277-1.467 0.33-1.9 0.047-0.433 0.07-0.667 0.07-0.7v0c0-0.733-0.307-1.177-0.92-1.33-0.62-0.147-1.413-0.22-2.38-0.22v0zM12.45-21.65l-0.4 2.25-21.15-2.25zM11.6-16.85l-0.4 2.25-21.15-2.25zM10.8-12.05l-0.4 2.25-21.2-2.25zM9.95-7.25l-0.4 2.25-21.2-2.25zM9.1-2.4l-0.4 2.25-21.2-2.25zM61.85 0.75v0c-4.333 0-7.373-0.85-9.12-2.55-1.753-1.7-2.63-4.217-2.63-7.55v0c0-0.933 0.057-1.917 0.17-2.95 0.12-1.033 0.28-2.133 0.48-3.3v0c0.633-3.633 1.567-6.66 2.8-9.08 1.233-2.413 2.967-4.237 5.2-5.47 2.233-1.233 5.183-1.85 8.85-1.85v0c4.333 0 7.373 0.84 9.12 2.52 1.753 1.687 2.63 4.213 2.63 7.58v0c0 1.367-0.107 2.933-0.32 4.7-0.22 1.767-0.587 3.567-1.1 5.4-0.52 1.833-1.213 3.567-2.08 5.2-0.867 1.633-1.95 3.033-3.25 4.2v0c-1.333 1.167-2.883 1.983-4.65 2.45-1.767 0.467-3.8 0.7-6.1 0.7zM55.25-29.6v0l-15.3-1.65h17.55c-0.4 0.233-0.783 0.483-1.15 0.75-0.367 0.267-0.733 0.567-1.1 0.9zM51.75-24.45v0l-18.7-2h19.7c-0.167 0.333-0.333 0.657-0.5 0.97-0.167 0.32-0.333 0.663-0.5 1.03zM61.85-20.8l-2.3 13h3.95c1.1 0 2.007-0.133 2.72-0.4 0.72-0.267 1.197-1.017 1.43-2.25v0l2.3-13h-4c-1.1 0-2 0.133-2.7 0.4-0.7 0.267-1.167 1.017-1.4 2.25zM50.7-21.65l-0.6 2.05-19.4-2.05zM49.15-14.75v0l-19.65-2.1h20l-0.15 1c-0.033 0.2-0.067 0.39-0.1 0.57-0.033 0.187-0.067 0.363-0.1 0.53zM48.65-9.95v0l-19.7-2.1h19.85c-0.1 0.733-0.15 1.433-0.15 2.1zM49.05-5.15v0l-19.45-2.1h19.1c0.067 0.367 0.127 0.723 0.18 1.07 0.047 0.353 0.103 0.697 0.17 1.03zM51.7-0.55v0l-17.3-1.85h15.8c0.433 0.767 0.933 1.383 1.5 1.85zM100.1 0h-10l13.15-31.25h14.7l2.2 31.25h-10.05l-0.2-4.95h-7.85zM101.6-31.25l-0.9 2.15-20.4-2.15zM99.55-26.45l-0.9 2.15-20.4-2.15zM97.55-21.65l-0.9 2.2-20.45-2.2zM108.65-21.65l-3.5 8.75h4v-8.75zM95.55-16.85l-0.95 2.2-20.45-2.2zM93.5-12.05l-0.9 2.2-20.5-2.2zM91.5-7.25l-0.95 2.2-20.5-2.2zM89.45-2.4l-0.95 2.2-20.5-2.2zM146.55 0h-13.3l5.5-31.25h13.3c4.367 0 7.443 0.773 9.23 2.32 1.78 1.553 2.67 3.997 2.67 7.33v0c0 1.733-0.2 3.733-0.6 6v0c-0.633 3.6-1.557 6.55-2.77 8.85-1.22 2.3-2.937 4-5.15 5.1-2.22 1.1-5.18 1.65-8.88 1.65zM137.2-31.25l-0.4 2.25-21.15-2.25zM136.35-26.45l-0.35 2.25-21.2-2.25zM146.8-23.25l-2.65 15.25h3.95c1.1 0 2.01-0.133 2.73-0.4 0.713-0.267 1.187-1.017 1.42-2.25v0l1.75-9.95c0.033-0.167 0.05-0.31 0.05-0.43 0-0.113 0-0.237 0-0.37v0c0-0.867-0.307-1.393-0.92-1.58-0.62-0.18-1.413-0.27-2.38-0.27v0zM135.55-21.65l-0.4 2.25-21.2-2.25zM134.7-16.85l-0.4 2.25-21.2-2.25zM133.85-12.05l-0.4 2.25-21.2-2.25zM133-7.25l-0.4 2.25-21.2-2.25zM132.15-2.4l-0.4 2.25-21.2-2.25zM194.7 0h-10l13.15-31.25h14.7l2.2 31.25h-10.05l-0.2-4.95h-7.85zM196.2-31.25l-0.9 2.15-20.4-2.15zM194.15-26.45l-0.9 2.15-20.4-2.15zM192.15-21.65l-0.9 2.2-20.45-2.2zM203.25-21.65l-3.5 8.75h4v-8.75zM190.15-16.85l-0.95 2.2-20.45-2.2zM188.1-12.05l-0.9 2.2-20.5-2.2zM186.1-7.25l-0.95 2.2-20.5-2.2zM184.05-2.4l-0.95 2.2-20.5-2.2zM239.55 0.75v0c-1.967 0-3.89-0.107-5.77-0.32-1.887-0.22-3.713-0.547-5.48-0.98v0l2.8-8.25c1.267 0.333 2.633 0.607 4.1 0.82 1.467 0.22 2.85 0.33 4.15 0.33v0c1.067 0 2-0.027 2.8-0.08 0.8-0.047 1.567-0.12 2.3-0.22v0l0.4-2.5-4.15-0.4c-3.267-0.333-5.533-1.077-6.8-2.23-1.267-1.147-1.9-2.72-1.9-4.72v0c0-0.9 0.1-1.9 0.3-3v0c0.533-2.833 1.31-5.067 2.33-6.7 1.013-1.633 2.47-2.793 4.37-3.48 1.9-0.68 4.417-1.02 7.55-1.02v0c1.833 0 3.633 0.1 5.4 0.3 1.767 0.2 3.467 0.517 5.1 0.95v0l-2.6 8c-1.3-0.233-2.533-0.417-3.7-0.55-1.167-0.133-2.467-0.2-3.9-0.2v0c-0.767 0-1.417 0.017-1.95 0.05-0.533 0.033-1.183 0.1-1.95 0.2v0l-0.4 2.45 3.35 0.35c2.4 0.233 4.283 0.693 5.65 1.38 1.367 0.68 2.333 1.527 2.9 2.54 0.567 1.02 0.85 2.197 0.85 3.53v0c0 0.4-0.023 0.807-0.07 1.22-0.053 0.42-0.113 0.863-0.18 1.33v0c-0.467 2.7-1.217 4.817-2.25 6.35-1.033 1.533-2.25 2.64-3.65 3.32-1.4 0.687-2.923 1.113-4.57 1.28-1.653 0.167-3.33 0.25-5.03 0.25zM233.8-29.2v0l-19.3-2.05h21.5c-0.433 0.267-0.823 0.573-1.17 0.92-0.353 0.353-0.697 0.73-1.03 1.13zM232.25-26.45l-0.75 2.2-20.75-2.2zM230.55-19.4v0l-21.2-2.25h21.55c-0.033 0.1-0.057 0.2-0.07 0.3-0.02 0.1-0.03 0.2-0.03 0.3v0c-0.033 0.233-0.073 0.483-0.12 0.75-0.053 0.267-0.097 0.567-0.13 0.9zM230.95-14.6v0l-21.15-2.25h20.75c0.033 0.433 0.077 0.823 0.13 1.17 0.047 0.353 0.137 0.713 0.27 1.08zM237.55-9.8v0l-26.45-2.25h21.55c1.1 1.067 2.733 1.817 4.9 2.25zM228.95-7.25l-0.75 2.2-17.95-2.2zM227.35-2.4l-0.75 2.2-17.2-2.2zM279.45 0.75v0c-1.967 0-3.89-0.107-5.77-0.32-1.887-0.22-3.713-0.547-5.48-0.98v0l2.8-8.25c1.267 0.333 2.633 0.607 4.1 0.82 1.467 0.22 2.85 0.33 4.15 0.33v0c1.067 0 2-0.027 2.8-0.08 0.8-0.047 1.567-0.12 2.3-0.22v0l0.4-2.5-4.15-0.4c-3.267-0.333-5.533-1.077-6.8-2.23-1.267-1.147-1.9-2.72-1.9-4.72v0c0-0.9 0.1-1.9 0.3-3v0c0.533-2.833 1.31-5.067 2.33-6.7 1.013-1.633 2.47-2.793 4.37-3.48 1.9-0.68 4.417-1.02 7.55-1.02v0c1.833 0 3.633 0.1 5.4 0.3 1.767 0.2 3.467 0.517 5.1 0.95v0l-2.6 8c-1.3-0.233-2.533-0.417-3.7-0.55-1.167-0.133-2.467-0.2-3.9-0.2v0c-0.767 0-1.417 0.017-1.95 0.05-0.533 0.033-1.183 0.1-1.95 0.2v0l-0.4 2.45 3.35 0.35c2.4 0.233 4.283 0.693 5.65 1.38 1.367 0.68 2.333 1.527 2.9 2.54 0.567 1.02 0.85 2.197 0.85 3.53v0c0 0.4-0.023 0.807-0.07 1.22-0.053 0.42-0.113 0.863-0.18 1.33v0c-0.467 2.7-1.217 4.817-2.25 6.35-1.033 1.533-2.25 2.64-3.65 3.32-1.4 0.687-2.923 1.113-4.57 1.28-1.653 0.167-3.33 0.25-5.03 0.25zM273.7-29.2v0l-19.3-2.05h21.5c-0.433 0.267-0.823 0.573-1.17 0.92-0.353 0.353-0.697 0.73-1.03 1.13zM272.15-26.45l-0.75 2.2-20.75-2.2zM270.45-19.4v0l-21.2-2.25h21.55c-0.033 0.1-0.057 0.2-0.07 0.3-0.02 0.1-0.03 0.2-0.03 0.3v0c-0.033 0.233-0.073 0.483-0.12 0.75-0.053 0.267-0.097 0.567-0.13 0.9zM270.85-14.6v0l-21.15-2.25h20.75c0.033 0.433 0.077 0.823 0.13 1.17 0.047 0.353 0.137 0.713 0.27 1.08zM277.45-9.8v0l-26.45-2.25h21.55c1.1 1.067 2.733 1.817 4.9 2.25zM268.85-7.25l-0.75 2.2-17.95-2.2zM267.25-2.4l-0.75 2.2-17.2-2.2zM317.15 0h-9.5l5.5-31.25h9.5zM311.6-31.25l-0.4 2.25-21.15-2.25zM310.75-26.45l-0.35 2.25-21.2-2.25zM309.95-21.65l-0.4 2.25-21.2-2.25zM309.1-16.85l-0.4 2.25-21.2-2.25zM308.25-12.05l-0.4 2.25-21.2-2.25zM307.4-7.25l-0.4 2.25-21.2-2.25zM306.55-2.4l-0.4 2.25-21.2-2.25zM344.55 0.75v0c-1.967 0-3.89-0.107-5.77-0.32-1.887-0.22-3.713-0.547-5.48-0.98v0l2.8-8.25c1.267 0.333 2.633 0.607 4.1 0.82 1.467 0.22 2.85 0.33 4.15 0.33v0c1.067 0 2-0.027 2.8-0.08 0.8-0.047 1.567-0.12 2.3-0.22v0l0.4-2.5-4.15-0.4c-3.267-0.333-5.533-1.077-6.8-2.23-1.267-1.147-1.9-2.72-1.9-4.72v0c0-0.9 0.1-1.9 0.3-3v0c0.533-2.833 1.31-5.067 2.33-6.7 1.013-1.633 2.47-2.793 4.37-3.48 1.9-0.68 4.417-1.02 7.55-1.02v0c1.833 0 3.633 0.1 5.4 0.3 1.767 0.2 3.467 0.517 5.1 0.95v0l-2.6 8c-1.3-0.233-2.533-0.417-3.7-0.55-1.167-0.133-2.467-0.2-3.9-0.2v0c-0.767 0-1.417 0.017-1.95 0.05-0.533 0.033-1.183 0.1-1.95 0.2v0l-0.4 2.45 3.35 0.35c2.4 0.233 4.283 0.693 5.65 1.38 1.367 0.68 2.333 1.527 2.9 2.54 0.567 1.02 0.85 2.197 0.85 3.53v0c0 0.4-0.023 0.807-0.07 1.22-0.053 0.42-0.113 0.863-0.18 1.33v0c-0.467 2.7-1.217 4.817-2.25 6.35-1.033 1.533-2.25 2.64-3.65 3.32-1.4 0.687-2.923 1.113-4.57 1.28-1.653 0.167-3.33 0.25-5.03 0.25zM338.8-29.2v0l-19.3-2.05h21.5c-0.433 0.267-0.823 0.573-1.17 0.92-0.353 0.353-0.697 0.73-1.03 1.13zM337.25-26.45l-0.75 2.2-20.75-2.2zM335.55-19.4v0l-21.2-2.25h21.55c-0.033 0.1-0.057 0.2-0.07 0.3-0.02 0.1-0.03 0.2-0.03 0.3v0c-0.033 0.233-0.073 0.483-0.12 0.75-0.053 0.267-0.097 0.567-0.13 0.9zM335.95-14.6v0l-21.15-2.25h20.75c0.033 0.433 0.077 0.823 0.13 1.17 0.047 0.353 0.137 0.713 0.27 1.08zM342.55-9.8v0l-26.45-2.25h21.55c1.1 1.067 2.733 1.817 4.9 2.25zM333.95-7.25l-0.75 2.2-17.95-2.2zM332.35-2.4l-0.75 2.2-17.2-2.2zM388.4 0h-9.5l4.05-23.25h-6.85l1.45-8h23.25l-1.45 8h-6.9zM375.95-31.25l-0.4 2.25-21.15-2.25zM375.1-26.45l-0.35 2.25-21.2-2.25zM381.15-21.65l-0.4 2.25-21.2-2.25zM380.3-16.85l-0.4 2.25-21.2-2.25zM379.45-12.05l-0.4 2.25-21.2-2.25zM378.6-7.25l-0.4 2.25-21.2-2.25zM377.75-2.4l-0.4 2.25-21.2-2.25zM416.75 0h-10l13.15-31.25h14.7l2.2 31.25h-10.05l-0.2-4.95h-7.85zM418.25-31.25l-0.9 2.15-20.4-2.15zM416.2-26.45l-0.9 2.15-20.4-2.15zM414.2-21.65l-0.9 2.2-20.45-2.2zM425.3-21.65l-3.5 8.75h4v-8.75zM412.2-16.85l-0.95 2.2-20.45-2.2zM410.15-12.05l-0.9 2.2-20.5-2.2zM408.15-7.25l-0.95 2.2-20.5-2.2zM406.1-2.4l-0.95 2.2-20.5-2.2zM459.4 0h-9.5l5.5-31.25h8.95l5.1 11.1c0.1 0.233 0.15 0.567 0.15 1v0c0 0.233-0.007 0.473-0.02 0.72-0.02 0.253-0.047 0.48-0.08 0.68v0h0.4l2.4-13.5h9.5l-5.5 31.25h-8.95l-5.1-11.1c-0.033-0.133-0.073-0.293-0.12-0.48-0.053-0.18-0.08-0.387-0.08-0.62v0c0-0.2 0.01-0.417 0.03-0.65 0.013-0.233 0.037-0.45 0.07-0.65v0h-0.4zM453.85-31.25l-0.4 2.25-21.15-2.25zM453-26.45l-0.35 2.25-21.2-2.25zM452.2-21.65l-0.4 2.25-21.2-2.25zM451.35-16.85l-0.4 2.25-21.2-2.25zM450.5-12.05l-0.4 2.25-21.2-2.25zM449.65-7.25l-0.4 2.25-21.2-2.25zM448.8-2.4l-0.4 2.25-21.2-2.25zM504.4 0.75v0c-4.333 0-7.373-0.843-9.12-2.53-1.753-1.68-2.63-4.17-2.63-7.47v0c0-0.933 0.067-1.927 0.2-2.98 0.133-1.047 0.3-2.17 0.5-3.37v0c0.633-3.633 1.55-6.66 2.75-9.08 1.2-2.413 2.917-4.237 5.15-5.47 2.233-1.233 5.2-1.85 8.9-1.85v0c0.733 0 1.6 0.05 2.6 0.15 1 0.1 1.977 0.25 2.93 0.45 0.947 0.2 1.67 0.433 2.17 0.7v0l-2.8 7.65c-0.933-0.233-1.933-0.41-3-0.53-1.067-0.113-1.933-0.17-2.6-0.17v0c-1.533 0-2.7 0.15-3.5 0.45-0.8 0.3-1.283 0.983-1.45 2.05v0l-2.3 13.1c0.667 0.133 1.31 0.233 1.93 0.3 0.613 0.067 1.203 0.1 1.77 0.1v0c1.267 0 2.56-0.11 3.88-0.33 1.313-0.213 2.487-0.503 3.52-0.87v0l-0.8 8.4c-1.167 0.467-2.39 0.8-3.67 1-1.287 0.2-2.763 0.3-4.43 0.3zM497.75-29.6v0l-15.3-1.65h17.55c-0.4 0.233-0.783 0.483-1.15 0.75-0.367 0.267-0.733 0.567-1.1 0.9zM494.25-24.45v0l-18.7-2h19.7c-0.167 0.333-0.333 0.657-0.5 0.97-0.167 0.32-0.333 0.663-0.5 1.03zM493.2-21.65l-0.6 2.05-19.4-2.05zM491.65-14.75v0l-19.65-2.1h20l-0.15 1c-0.033 0.2-0.067 0.39-0.1 0.57-0.033 0.187-0.067 0.363-0.1 0.53zM491.15-9.95v0l-19.7-2.1h19.85c-0.1 0.733-0.15 1.433-0.15 2.1zM491.55-5.15v0l-19.45-2.1h19.1c0.067 0.367 0.127 0.723 0.18 1.07 0.047 0.353 0.103 0.697 0.17 1.03zM494.2-0.55v0l-17.3-1.85h15.8c0.433 0.767 0.933 1.383 1.5 1.85zM547.75 0h-21.15l5.5-31.25h20.9l-2.6 8h-10.25l-0.7 4.2h9.5l-1.3 7.25h-9.5l-0.65 3.8h11.65zM530.55-31.25l-0.4 2.25-21.15-2.25zM529.7-26.45l-0.35 2.25-21.2-2.25zM528.9-21.65l-0.4 2.25-21.2-2.25zM528.05-16.85l-0.4 2.25-21.2-2.25zM527.2-12.05l-0.4 2.25-21.2-2.25zM526.35-7.25l-0.4 2.25-21.2-2.25zM525.5-2.4l-0.4 2.25-21.2-2.25z" fill="#00d1cd" fill-rule="nonzero" stroke="none" stroke-width="1" stroke-linecap="butt" stroke-linejoin="miter" stroke-miterlimit="10" stroke-dasharray="" stroke-dashoffset="0" font-family="none" font-weight="none" font-size="none" text-anchor="none" style="mix-blend-mode: normal" data-fill-palette-color="secondary" id="text-1"></path></g></g><g transform="matrix(1,0,0,1,29.33176499999999,52.60018726123039)"><svg viewBox="0 0 316.416 134.20952297753925" height="134.20952297753925" width="316.416"><g><svg viewBox="0 0 317.99807999999996 134.88057059242692" height="134.20952297753925" width="316.416"><g><rect width="317.99807999999996" height="2.913291732369181" x="0" y="85.30943205445142" fill="#ffffff" opacity="1" stroke-width="0" stroke="transparent" fill-opacity="1" class="rect-qz-0" data-fill-palette-color="primary" rx="1%" id="qz-0" data-palette-color="#ffffff"></rect></g><g><rect width="317.99807999999996" height="2.913291732369181" x="0" y="92.03593286060224" fill="#ffffff" opacity="1" stroke-width="0" stroke="transparent" fill-opacity="1" class="rect-qz-1" data-fill-palette-color="primary" rx="1%" id="qz-1" data-palette-color="#ffffff"></rect></g><g transform="matrix(1,0,0,1,0.7910399999999811,102.57564274053472)"><svg viewBox="0 0 316.416 32.30492785189219" height="32.30492785189219" width="316.416"><g id="textblocktransform"><svg viewBox="0 0 316.416 32.30492785189219" height="32.30492785189219" width="316.416" id="textblock"><g><svg viewBox="0 0 316.416 32.30492785189219" height="32.30492785189219" width="316.416"><g transform="matrix(1,0,0,1,0,0)"><svg width="316.416" viewBox="4 -37.5 367.27 37.5" height="32.30492785189219" data-palette-color="#ffffff"><path d="M4-33.5L4-37.5 24-37.5 29.2-32 29.2-21 24-15.5 29.35-4 31.95-4 31.95 0 22.55 0 22.55-4 24.5-4 19.15-15.5 12.1-15.5 12.1-4 15.1-4 15.1 0 4 0 4-4 7.5-4 7.5-33.5 4-33.5ZM22.05-33.2L12.1-33.2 12.1-19.8 22-19.8 24.9-22.75 24.9-30.25 22.05-33.2ZM38.45 0L38.45-4 42.45-4 42.45-28.5 38.45-28.5 38.45-32.5 51.05-32.5 51.05-28.5 47.05-28.5 47.05-4 51.05-4 51.05 0 38.45 0ZM77.55-7.55L77.55-11.8 81.55-11.8 81.55-5.5 76.35 0 63.75 0 58.55-5.5 58.55-27 63.75-32.5 76.35-32.5 81.55-27 81.55-20.7 77.55-20.7 77.55-24.95 74.4-28.2 65.75-28.2 63.15-25.55 63.15-6.95 65.7-4.3 74.35-4.3 77.55-7.55ZM88.54-28.5L88.54-32.5 100.14-32.5 100.14-28.5 96.64-28.5 96.64-18.25 112.04-18.25 112.04-28.5 108.54-28.5 108.54-32.5 120.14-32.5 120.14-28.5 116.64-28.5 116.64-4 120.14-4 120.14 0 108.54 0 108.54-4 112.04-4 112.04-14.25 96.64-14.25 96.64-4 100.14-4 100.14 0 88.54 0 88.54-4 92.04-4 92.04-28.5 88.54-28.5ZM156.24 0L145.64 0 145.64-4 148.94-4 146.79-10.2 134.29-10.2 132.14-4 135.49-4 135.49 0 124.89 0 124.89-4 127.54-4 135.99-28.5 133.89-28.5 133.89-32.5 147.24-32.5 147.24-28.5 145.09-28.5 153.54-4 156.24-4 156.24 0ZM145.44-14.2L140.54-28.35 135.64-14.2 145.44-14.2ZM160.99-28.5L160.99-32.5 180.99-32.5 186.19-27 186.19-17 181.14-11.7 185.79-4 188.44-4 188.44 0 179.54 0 179.54-4 180.94-4 176.44-11.5 169.09-11.5 169.09-4 172.09-4 172.09 0 160.99 0 160.99-4 164.49-4 164.49-28.5 160.99-28.5ZM179.04-28.2L169.09-28.2 169.09-15.8 178.99-15.8 181.89-18.75 181.89-25.25 179.04-28.2ZM195.94-28.5L195.94-32.5 217.24-32.5 222.44-27 222.44-5.5 217.24 0 195.94 0 195.94-4 199.44-4 199.44-28.5 195.94-28.5ZM204.03-28.2L204.03-4.3 215.24-4.3 217.84-6.95 217.84-25.55 215.28-28.2 204.03-28.2ZM253.68-33.5L253.68-37.5 267.03-37.5 267.03-33.5 264.73-33.5 273.53-4 276.03-4 276.03 0 265.43 0 265.43-4 268.93-4 266.63-11.7 254.08-11.7 251.78-4 255.28-4 255.28 0 244.68 0 244.68-4 247.18-4 255.98-33.5 253.68-33.5ZM265.43-15.7L260.33-32.75 255.28-15.7 265.43-15.7ZM299.18-28.5L299.18-32.5 310.28-32.5 310.28-28.5 307.28-28.5 307.28-5.5 302.08 0 288.48 0 283.28-5.5 283.28-28.5 280.28-28.5 280.28-32.5 291.38-32.5 291.38-28.5 287.88-28.5 287.88-6.95 290.43-4.3 300.08-4.3 302.68-6.95 302.68-28.5 299.18-28.5ZM335.58-4L335.58 0 320.98 0 320.98-4 325.98-4 325.98-28.5 319.08-28.5 319.08-22.7 315.28-22.7 315.28-32.5 341.28-32.5 341.28-22.7 337.48-22.7 337.48-28.5 330.58-28.5 330.58-4 335.58-4ZM366.07 0L351.97 0 346.77-5.5 346.77-27 351.97-32.5 366.07-32.5 371.27-27 371.27-5.5 366.07 0ZM351.37-6.95L353.92-4.3 364.07-4.3 366.67-6.95 366.67-25.55 364.12-28.2 353.97-28.2 351.37-25.55 351.37-6.95Z" opacity="1" transform="matrix(1,0,0,1,0,0)" fill="#ffffff" class="wordmark-text-0" data-fill-palette-color="primary" id="text-0"></path></svg></g></svg></g></svg></g></svg></g><g transform="matrix(1,0,0,1,69.46197578241706,0)"><svg viewBox="0 0 179.07412843516585 77.68301390688812" height="77.68301390688812" width="179.07412843516585"><g><svg xmlns="http://www.w3.org/2000/svg" xmlns:xlink="http://www.w3.org/1999/xlink" version="1.1" x="0" y="0" viewBox="2.6630000000000003 33.602 95.88900000000001 41.597000000000016" enable-background="new 0 0 100 100" xml:space="preserve" height="77.68301390688812" width="179.07412843516585" class="icon-icon-0" data-fill-palette-color="accent" id="icon-0"><g fill="#00d1cd" data-fill-palette-color="accent"><path fill="#00d1cd" d="M86.736 64.49c-2.957 0-5.354 2.396-5.354 5.352 0 2.961 2.396 5.357 5.354 5.357s5.355-2.396 5.355-5.357C92.094 66.887 89.693 64.49 86.736 64.49zM86.736 72.465c-1.445 0-2.621-1.174-2.621-2.623 0-1.443 1.176-2.617 2.621-2.617 1.447 0 2.619 1.174 2.619 2.617C89.355 71.291 88.184 72.465 86.736 72.465z" data-fill-palette-color="accent"></path><path fill="#00d1cd" d="M7.936 56.201H7.934c0-0.848 0.686-1.534 1.53-1.534h11.341c0.846 0 1.531 0.687 1.531 1.534l0.002 0.221h26.783c0.182-3.807 3.326-6.84 7.182-6.84 3.858 0 7.006 3.041 7.18 6.855l2.266 0.006c0.508 0 0.922-0.41 0.922-0.92V53.1c0-0.508-0.414-0.918-0.922-0.918H65.57v-4.778c0-1.353-1.098-2.45-2.452-2.45h-9.271l-6.703-9.812c-0.828-1.102-1.623-1.532-2.892-1.532L5.727 33.602c-1.691 0-3.064 1.373-3.064 3.065v16.64c0 1.657 1.318 3.062 2.967 3.116h2.307V56.201zM38.421 36.674L38.421 36.674c0.001-0.506 0.411-0.918 0.921-0.918h4.694c0.512 0 0.698 0.046 1.163 0.661l3.15 4.436c0.358 0.508 0.237 0.919-0.27 0.919h-8.739c-0.51 0-0.92-0.411-0.92-0.919V36.674zM37.645 43.143c0.316 0 0.553 0.123 0.705 0.307h2.213c0.816 0 0.816 1.225 0 1.225h-2.215c-0.154 0.183-0.389 0.306-0.709 0.306C36.414 44.98 36.414 43.143 37.645 43.143z" data-fill-palette-color="accent"></path><path fill="#00d1cd" d="M97.633 65.248l-1.623-0.004V62.79c0.332 0.64 0.998 1.071 1.766 1.071 0 0 0.152-0.004 0.184-0.008 0.328-0.045 0.582-0.34 0.582-0.692v-2.595c0-0.352-0.254-0.646-0.582-0.691-0.061-0.006-0.119-0.01-0.184-0.01-0.768 0-1.434 0.435-1.768 1.07v-0.463c0-1.355-1.1-2.451-2.453-2.451h-0.086l-3.922-0.002c-0.854 0-0.854-1.228 0-1.228h3.086L85.658 46.63c-0.826-1.102-1.623-1.532-2.891-1.532h-6.389l-0.162-1.149c-0.018-0.117-0.123-0.211-0.236-0.215l-0.203-1.501c-0.148-0.998-0.645-1.501-1.463-1.501-0.816 0-1.311 0.506-1.465 1.501l-0.201 1.501h-0.033c-0.117 0-0.229 0.097-0.242 0.215l-0.158 1.149h-2.418c-0.844 0-1.529 0.686-1.529 1.532v14.495c-0.156 0.68-0.764 1.191-1.494 1.191H11.902c-0.848 0-1.532 0.686-1.532 1.531l0.002 1.316L8.739 65.17c-0.511 0-0.923 0.408-0.923 0.918v2.424c0 0.508 0.412 0.92 0.923 0.92l6.896 0.01v-0.176c0-0.846 0.688-1.531 1.532-1.531h11.341c0.848 0 1.532 0.687 1.532 1.531v0.193l49.519 0.029c0.18-3.807 3.324-6.838 7.18-6.838 3.857 0 7.008 3.039 7.182 6.854l3.713 0.004c0.506 0 0.918-0.411 0.918-0.918V66.17C98.551 65.658 98.139 65.248 97.633 65.248zM73.67 42.344c0.111-0.703 0.354-0.784 0.645-0.784 0.299 0 0.539 0.082 0.646 0.796l0.168 1.256h-1.625L73.67 42.344zM76.316 53.92c0 0.508-0.41 0.919-0.918 0.919h-2.277c-0.51 0-0.918-0.411-0.918-0.919v-5.755c0-0.507 0.408-0.919 0.918-0.919h2.277c0.508 0 0.918 0.412 0.918 0.919V53.92zM81.812 58.042h-2.211c-0.154 0.185-0.391 0.308-0.711 0.308-1.225 0-1.225-1.84 0.006-1.84 0.318 0 0.553 0.123 0.707 0.307h2.209C82.633 56.816 82.633 58.042 81.812 58.042zM87.699 54.839h-8.738c-0.506 0-0.918-0.411-0.918-0.919v-5.755c0-0.507 0.412-0.919 0.918-0.919h3.59c0.514 0 0.699 0.047 1.166 0.66l4.258 6.015C88.326 54.428 88.209 54.839 87.699 54.839z" data-fill-palette-color="accent"></path><path fill="#00d1cd" d="M25.283 68.906c0.111 0.293 0.172 0.607 0.172 0.936 0 1.449-1.172 2.623-2.617 2.623-1.447 0-2.619-1.174-2.619-2.623 0-0.328 0.061-0.643 0.172-0.936h-2.828c-0.053 0.307-0.082 0.619-0.082 0.936 0 2.961 2.398 5.357 5.357 5.357 2.955 0 5.354-2.396 5.354-5.357 0-0.316-0.027-0.629-0.082-0.936H25.283z" data-fill-palette-color="accent"></path><path fill="#00d1cd" d="M56.296 51.421c-2.958 0-5.356 2.397-5.356 5.354 0 1.734 0.826 3.277 2.104 4.254h6.506c1.278-0.977 2.103-2.52 2.103-4.254C61.65 53.818 59.255 51.421 56.296 51.421zM56.296 59.396c-1.446 0-2.618-1.176-2.618-2.621 0-1.446 1.172-2.619 2.618-2.619 1.448 0 2.618 1.173 2.618 2.619C58.914 58.221 57.744 59.396 56.296 59.396z" data-fill-palette-color="accent"></path><path fill="#00d1cd" d="M9.854 55.839c-0.054 0.304-0.08 0.617-0.08 0.937 0 1.734 0.824 3.279 2.104 4.256h6.502c1.278-0.977 2.104-2.521 2.104-4.256 0-0.318-0.027-0.633-0.08-0.937h-2.828c0.113 0.291 0.174 0.606 0.174 0.937 0 1.445-1.174 2.621-2.619 2.621s-2.619-1.176-2.619-2.621c0-0.328 0.062-0.646 0.172-0.937H9.854z" data-fill-palette-color="accent"></path></g></svg></g></svg></g><g></g></svg></g></svg></g></svg></g><defs></defs></svg><rect width="375.07953" height="239.40989750000003" fill="none" stroke="none" visibility="hidden"></rect></g></svg></g></svg>